<svg width="818" height="96" viewBox="0 0 818 96" fill="none" xmlns="http://www.w3.org/2000/svg">
<path d="M5.52734 9.84375C7.40234 7.57812 9.66797 6.17187 12.3242 5.625C13.4961 5.3125 14.668 5.03906 15.8398 4.80469C17.0117 4.57031 18.2227 4.10156 19.4727 3.39844C21.8164 2.07031 23.418 1.40625 24.2773 1.40625C25.2148 1.40625 25.918 1.48437 26.3867 1.64062C26.9336 1.79688 27.5195 1.91406 28.1445 1.99219C28.8477 2.07031 29.5508 2.10938 30.2539 2.10938C31.0352 2.10938 31.8945 2.1875 32.832 2.34375C35.8008 2.73438 38.9258 4.6875 42.207 8.20312C44.3164 10.4688 45.6055 12.8125 46.0742 15.2344C46.6211 17.6562 46.8555 20.0391 46.7773 22.3828C46.6992 25.7422 46.9336 28.2422 47.4805 29.8828C48.0273 31.5234 48.3789 32.7734 48.5352 33.6328C48.6914 34.4922 48.5742 35.7031 48.1836 37.2656C47.8711 38.75 47.3242 39.8047 46.543 40.4297C45.7617 41.0547 44.9023 41.4453 43.9648 41.6016C43.0273 41.7578 42.1289 41.7969 41.2695 41.7188C40.4102 41.6406 39.707 41.6016 39.1602 41.6016C38.6133 41.6016 38.2227 41.7578 37.9883 42.0703C37.832 42.3047 37.6367 42.5781 37.4023 42.8906C36.8555 43.4375 35.8008 43.4766 34.2383 43.0078C32.6758 42.5391 31.3867 41.5625 30.3711 40.0781C29.3555 38.5156 29.2383 36.5234 30.0195 34.1016C30.2539 33.3203 30.4883 32.6172 30.7227 31.9922C30.957 31.2891 30.9961 30.7031 30.8398 30.2344C30.5273 29.1406 29.7852 28.5547 28.6133 28.4766C27.4414 28.3984 26.4258 28.7109 25.5664 29.4141C24.3945 30.5078 23.6133 31.875 23.2227 33.5156C22.9102 35.0781 22.793 36.2109 22.8711 36.9141C23.0273 37.6172 23.1055 38.3594 23.1055 39.1406C23.1055 39.9219 23.1445 40.7422 23.2227 41.6016C23.5352 43.6328 24.0039 45 24.6289 45.7031C25.332 46.4062 25.918 46.7969 26.3867 46.875C26.8555 46.9531 27.2852 46.9922 27.6758 46.9922C28.1445 46.9141 28.6133 46.875 29.082 46.875C29.5508 46.875 30.2148 47.0703 31.0742 47.4609C31.9336 47.8516 32.793 48.2422 33.6523 48.6328C34.5898 49.0234 35.4102 49.6484 36.1133 50.5078C36.8164 51.3672 37.4023 51.9141 37.8711 52.1484C38.418 52.3828 38.8867 52.6172 39.2773 52.8516C39.668 53.0078 40.0195 53.1641 40.332 53.3203C40.7227 53.4766 41.0352 53.8672 41.2695 54.4922C42.2852 57.2266 42.5195 60.3906 41.9727 63.9844C41.8164 65.3125 41.6602 66.3672 41.5039 67.1484C41.4258 67.9297 41.3477 68.6328 41.2695 69.2578C41.1914 69.8047 41.1133 70.3125 41.0352 70.7812C40.957 71.1719 40.918 71.7969 40.918 72.6562C40.918 75.8594 40.3711 78.3203 39.2773 80.0391C38.2617 81.7578 37.207 82.9297 36.1133 83.5547C35.0195 84.1797 34.3164 84.6484 34.0039 84.9609C33.6914 85.2734 33.418 85.6641 33.1836 86.1328C33.0273 86.6016 32.7539 87.1094 32.3633 87.6562C31.4258 88.9844 30.0586 89.9219 28.2617 90.4688C26.2305 91.0938 24.043 91.3672 21.6992 91.2891C19.4336 91.2891 17.6758 91.1719 16.4258 90.9375C15.1758 90.7031 14.0039 90.1172 12.9102 89.1797C11.8945 88.2422 11.0352 87.2266 10.332 86.1328C9.70703 84.9609 9.19922 84.3359 8.80859 84.2578C8.41797 84.1016 7.98828 84.0234 7.51953 84.0234H6.11328C4.86328 84.0234 4.00391 83.6719 3.53516 82.9688C3.14453 82.1875 2.98828 81.4844 3.06641 80.8594C3.22266 80.1562 3.26172 79.1797 3.18359 77.9297C3.18359 76.6797 3.18359 75.5078 3.18359 74.4141C3.26172 73.3203 3.73047 72.3828 4.58984 71.6016C6.46484 70.1172 8.10547 69.3359 9.51172 69.2578C10.918 69.1797 11.8555 68.9062 12.3242 68.4375C12.793 67.9688 13.1445 67.5391 13.3789 67.1484C13.6914 66.7578 14.082 66.5234 14.5508 66.4453C15.0977 66.3672 15.6445 66.4062 16.1914 66.5625C17.5195 66.9531 18.1836 67.7344 18.1836 68.9062C18.1836 70.0781 18.1836 71.1719 18.1836 72.1875C18.2617 73.125 18.418 73.9844 18.6523 74.7656C19.1992 76.7969 20.2148 77.7344 21.6992 77.5781C23.3398 77.4219 24.2383 75.7812 24.3945 72.6562C24.3945 71.7969 24.3945 70.9766 24.3945 70.1953V67.6172C24.3945 63.9453 22.6367 61.1328 19.1211 59.1797C17.7148 58.3984 16.3477 57.6562 15.0195 56.9531C13.6914 56.25 12.4414 55.3906 11.2695 54.375C8.61328 52.0312 6.93359 49.3359 6.23047 46.2891C5.52734 43.2422 5.01953 41.2891 4.70703 40.4297C4.39453 39.4922 4.08203 38.8672 3.76953 38.5547C3.53516 38.2422 3.26172 38.0078 2.94922 37.8516C2.63672 37.6953 2.20703 37.2266 1.66016 36.4453C0.800781 35.2734 0.605469 33.9062 1.07422 32.3438C1.54297 30.7813 1.93359 29.4922 2.24609 28.4766C2.55859 27.3828 2.71484 26.2109 2.71484 24.9609C2.71484 23.7109 2.63672 22.5 2.48047 21.3281C2.40234 20.0781 2.36328 18.8281 2.36328 17.5781C2.51953 14.7656 3.57422 12.1875 5.52734 9.84375ZM64.8242 91.7578C63.7305 91.6797 62.5977 90.5078 61.4258 88.2422C60.332 85.9766 59.5508 83.0859 59.082 79.5703C58.6914 76.0547 58.418 73.6719 58.2617 72.4219C58.1055 71.1719 57.9492 70.2344 57.793 69.6094C57.5586 68.4375 57.0898 67.4219 56.3867 66.5625C55.7617 65.625 55.3711 64.9219 55.2148 64.4531C55.0586 63.75 55.0195 61.9922 55.0977 59.1797C55.2539 53.1641 54.9805 49.1797 54.2773 47.2266C53.9648 46.3672 53.8477 45.6641 53.9258 45.1172C54.0039 44.5703 54.0039 43.9844 53.9258 43.3594C53.9258 42.7344 53.7305 42.0703 53.3398 41.3672C52.9492 40.6641 52.5586 39.8438 52.168 38.9062C50.918 36.4062 50.293 34.6875 50.293 33.75C50.293 32.5781 50.6836 31.25 51.4648 29.7656C53.1836 26.875 54.1602 24.8828 54.3945 23.7891C54.707 22.6172 54.8242 21.1719 54.7461 19.4531C54.7461 17.6562 54.7461 15.8594 54.7461 14.0625C54.5898 9.45312 54.9805 6.5625 55.918 5.39062C56.543 4.76562 57.2852 4.33594 58.1445 4.10156C59.0039 3.86719 60.0977 3.51562 61.4258 3.04688C64.082 2.10938 66.0742 1.64062 67.4023 1.64062C68.8086 1.64062 69.9023 2.03125 70.6836 2.8125C71.543 3.51562 72.5195 3.94531 73.6133 4.10156C74.707 4.17969 75.4492 4.17969 75.8398 4.10156C76.3086 3.94531 76.6992 3.82812 77.0117 3.75C77.9492 3.35937 78.7305 3.16406 79.3555 3.16406C80.3711 3.16406 81.1133 3.55469 81.582 4.33594C82.0508 5.11719 82.4805 5.78125 82.8711 6.32812C83.2617 6.79688 83.8867 6.91406 84.7461 6.67969C85.6836 6.44531 86.3867 6.32812 86.8555 6.32812C87.3242 6.32812 87.7148 6.32812 88.0273 6.32812C89.1992 6.48438 90.2148 6.44531 91.0742 6.21094C92.793 5.66406 94.1211 5.9375 95.0586 7.03125C95.293 7.57812 95.8398 7.96875 96.6992 8.20312C97.5586 8.4375 98.3008 8.75 98.9258 9.14062C100.41 9.92187 101.426 11.2891 101.973 13.2422C103.066 16.8359 103.223 20.5469 102.441 24.375C102.129 25.7031 101.855 26.7578 101.621 27.5391C101.465 28.3203 101.309 29.0234 101.152 29.6484C101.074 30.1953 100.996 30.7422 100.918 31.2891C100.918 31.8359 100.879 32.5 100.801 33.2812C100.801 34.0625 100.801 34.9219 100.801 35.8594V39.0234C100.801 41.4453 100.879 43.3594 101.035 44.7656C101.504 48.6719 99.7461 51.4844 95.7617 53.2031C94.4336 53.75 93.4961 54.2578 92.9492 54.7266C92.4023 55.1953 91.9336 55.8984 91.543 56.8359C91.1523 57.7734 90.4102 58.9453 89.3164 60.3516C88.3008 61.7578 86.6992 62.8906 84.5117 63.75C82.4023 64.5312 80.5664 65.1953 79.0039 65.7422C77.4414 66.2891 76.4648 66.9531 76.0742 67.7344C75.5273 68.75 75.3711 71.1719 75.6055 75C75.918 78.75 76.0352 81.1328 75.957 82.1484C75.8789 83.1641 75.7617 84.0234 75.6055 84.7266C75.4492 85.3516 75.0586 85.8594 74.4336 86.25C73.8086 86.6406 73.2617 86.8359 72.793 86.8359C72.3242 86.8359 71.8164 87.0703 71.2695 87.5391C70.8008 88.0078 70.3711 88.4766 69.9805 88.9453C69.5898 89.4141 69.1602 89.8438 68.6914 90.2344C67.5977 91.25 66.3086 91.7578 64.8242 91.7578ZM72.793 26.1328C72.3242 26.6016 71.8555 27.9687 71.3867 30.2344C70.918 32.5 70.6836 34.2969 70.6836 35.625C70.6836 36.9531 70.957 38.1641 71.5039 39.2578C72.0508 40.2734 72.2852 41.1328 72.207 41.8359C72.207 42.4609 72.1289 43.1641 71.9727 43.9453C71.8945 44.6484 71.8555 45.3906 71.8555 46.1719C71.6992 48.0469 71.8555 49.2188 72.3242 49.6875C72.793 50.1562 73.3008 50.3516 73.8477 50.2734C74.4727 50.1172 75.0977 49.8828 75.7227 49.5703C76.3477 49.2578 76.8945 48.9453 77.3633 48.6328C77.9102 48.2422 78.418 47.9688 78.8867 47.8125C79.4336 47.6562 79.8242 47.3047 80.0586 46.7578C80.293 46.2109 80.6445 45.7422 81.1133 45.3516C81.6602 44.9609 82.0117 44.4531 82.168 43.8281C82.4023 43.125 82.5977 42.4219 82.7539 41.7188C82.9883 40.9375 82.9883 40.2344 82.7539 39.6094C82.5195 38.9062 82.0898 37.8906 81.4648 36.5625C80.9961 35.2344 80.8398 34.1797 80.9961 33.3984C81.6211 30.1172 81.2305 27.8516 79.8242 26.6016C78.0273 25.5078 76.5039 25.0391 75.2539 25.1953C74.082 25.3516 73.2617 25.6641 72.793 26.1328ZM138.887 5.74219L142.637 5.50781C145.293 5.50781 147.168 5.9375 148.262 6.79688C149.434 7.65625 150.293 8.4375 150.84 9.14062C151.465 9.84375 152.012 10.5859 152.48 11.3672C152.949 12.0703 153.574 12.8125 154.355 13.5938C155.215 14.375 155.645 15.3125 155.645 16.4062C155.645 17.4219 155.918 18.2422 156.465 18.8672C157.09 19.4922 157.402 20.5078 157.402 21.9141C157.402 23.3203 157.363 24.6875 157.285 26.0156C157.285 27.2656 157.168 28.3203 156.934 29.1797C156.699 29.9609 156.582 30.7813 156.582 31.6406C156.582 32.4219 156.738 33.1641 157.051 33.8672C157.441 34.4922 157.48 36.0938 157.168 38.6719C156.934 41.1719 156.504 43.7109 155.879 46.2891C155.332 48.8672 154.59 51.0938 153.652 52.9688C151.777 56.4844 148.73 59.2578 144.512 61.2891C144.902 62.2266 145.332 63.2812 145.801 64.4531C146.348 65.5469 146.855 66.6797 147.324 67.8516C148.34 70.7422 148.848 72.8516 148.848 74.1797C148.848 75.4297 148.887 76.3672 148.965 76.9922C149.121 77.5391 149.277 77.9688 149.434 78.2812C149.59 78.5938 149.785 78.8281 150.02 78.9844C150.332 79.1406 150.762 79.4531 151.309 79.9219C151.855 80.3125 152.285 81.0156 152.598 82.0312C152.91 83.0469 153.066 84.1016 153.066 85.1953C153.066 87.6953 152.754 89.2578 152.129 89.8828C151.582 90.4297 150.957 90.7812 150.254 90.9375C149.629 91.1719 148.965 91.3281 148.262 91.4062C146.465 91.6406 145.332 91.4062 144.863 90.7031C144.238 90.0781 143.887 89.4531 143.809 88.8281C143.809 88.125 143.691 87.5391 143.457 87.0703C143.223 86.5234 142.871 86.2109 142.402 86.1328C141.934 85.9766 141.582 85.4688 141.348 84.6094C141.191 83.75 140.918 83.2031 140.527 82.9688C140.215 82.6562 139.512 82.5781 138.418 82.7344C136.465 83.125 135.02 81.9531 134.082 79.2188C133.848 78.5938 133.613 77.7734 133.379 76.7578C133.145 75.7422 132.871 74.7656 132.559 73.8281C131.934 71.5625 131.191 70.3516 130.332 70.1953C129.551 69.9609 128.965 70.0391 128.574 70.4297C128.184 70.8203 127.871 71.3672 127.637 72.0703C127.48 72.6953 127.402 73.4375 127.402 74.2969C127.402 75.0781 127.48 75.9375 127.637 76.875C127.871 77.8125 127.91 78.5938 127.754 79.2188C127.598 79.8438 127.363 80.3516 127.051 80.7422C126.816 81.1328 126.543 81.4844 126.23 81.7969C125.605 82.1875 125.215 82.9688 125.059 84.1406C124.98 85.3125 124.824 86.3281 124.59 87.1875C124.121 89.2969 123.496 90.625 122.715 91.1719C121.934 91.7188 121.152 92.0312 120.371 92.1094C119.59 92.2656 118.809 92.2656 118.027 92.1094C116.074 91.7188 114.863 91.0156 114.395 90C113.926 89.0625 113.652 88.3594 113.574 87.8906C113.496 87.3438 113.457 86.8359 113.457 86.3672C113.535 85.8984 113.613 85.3906 113.691 84.8438C113.77 84.2969 113.77 83.6719 113.691 82.9688C113.691 82.1875 113.535 81.1719 113.223 79.9219C112.91 78.6719 112.715 77.1875 112.637 75.4688L112.52 72.4219C112.52 72.1094 112.793 71.6016 113.34 70.8984C113.887 70.1172 114.043 69.2578 113.809 68.3203C113.652 67.3047 113.223 66.6797 112.52 66.4453C111.816 66.1328 111.465 65.7812 111.465 65.3906C111.465 65 111.543 64.0234 111.699 62.4609C111.855 60.8984 111.777 58.9453 111.465 56.6016C111.23 54.2578 111.074 52.1875 110.996 50.3906C110.684 46.4844 109.98 44.2969 108.887 43.8281C107.871 43.2812 107.285 42.6562 107.129 41.9531C106.973 41.1719 106.973 40.3125 107.129 39.375C107.285 38.4375 107.441 37.2656 107.598 35.8594C107.832 34.4531 108.066 33.0469 108.301 31.6406C108.535 30.1562 108.73 28.7891 108.887 27.5391C109.121 26.2891 109.277 25.4297 109.355 24.9609C109.434 24.4922 109.434 24.0625 109.355 23.6719C109.355 23.2031 109.355 22.7734 109.355 22.3828C109.199 21.1328 109.199 20.0391 109.355 19.1016C109.668 17.3047 109.746 16.0547 109.59 15.3516C109.434 14.5703 109.551 13.4375 109.941 11.9531C110.41 10.3906 110.801 9.29688 111.113 8.67188C111.426 8.04687 112.012 7.57812 112.871 7.26562C113.73 6.95313 114.551 6.52344 115.332 5.97656C116.191 5.35156 116.973 4.76562 117.676 4.21875C118.379 3.59375 119.004 3.04688 119.551 2.57812C120.098 2.03125 120.762 1.64062 121.543 1.40625C123.809 0.9375 125.449 0.898437 126.465 1.28906C127.559 1.60156 128.34 1.95312 128.809 2.34375C129.277 2.73438 129.824 3.125 130.449 3.51562C131.152 3.90625 131.855 4.21875 132.559 4.45312C133.34 4.60938 134.043 4.6875 134.668 4.6875C136.309 4.84375 137.285 5.07813 137.598 5.39062C137.988 5.625 138.418 5.74219 138.887 5.74219ZM129.16 38.4375L129.863 49.1016C129.863 49.8047 129.824 50.5078 129.746 51.2109C129.668 51.8359 129.59 52.4219 129.512 52.9688C129.434 54.1406 129.863 54.8438 130.801 55.0781C131.582 55.2344 132.207 55.0391 132.676 54.4922C133.145 53.8672 133.574 53.0469 133.965 52.0312C134.902 50.0781 135.215 48.8281 134.902 48.2812C134.277 47.5 134.082 46.8359 134.316 46.2891C134.629 45.6641 135.215 44.4922 136.074 42.7734C137.012 41.0547 137.676 39.5703 138.066 38.3203C138.535 37.0703 138.652 35.7422 138.418 34.3359C138.184 32.8516 138.066 31.8359 138.066 31.2891V30C138.066 29.375 137.754 28.8281 137.129 28.3594C136.582 27.8125 136.191 27.5391 135.957 27.5391C135.723 27.4609 135.527 27.4219 135.371 27.4219C134.668 27.5781 134.004 27.5391 133.379 27.3047C132.754 26.9922 132.168 26.875 131.621 26.9531C131.074 26.9531 130.449 27.3047 129.746 28.0078C129.043 28.7109 128.652 29.4531 128.574 30.2344C128.496 30.9375 128.496 31.7578 128.574 32.6953C128.965 35.5078 129.16 37.4219 129.16 38.4375ZM191.621 25.1953C188.965 25.8984 188.457 30.4297 190.098 38.7891C190.645 41.0547 190.918 42.9688 190.918 44.5312C190.996 46.0156 190.801 47.6562 190.332 49.4531C189.863 51.25 189.629 52.6953 189.629 53.7891C189.629 54.8828 189.473 56.1719 189.16 57.6562C189.238 59.2969 189.199 60.9766 189.043 62.6953C188.965 64.3359 188.887 65.9375 188.809 67.5C188.574 71.3281 188.535 73.5938 188.691 74.2969C188.848 75 189.082 75.4688 189.395 75.7031C189.785 75.8594 190.215 76.0156 190.684 76.1719C191.777 76.5625 192.441 77.0703 192.676 77.6953C192.91 78.3203 192.988 79.2188 192.91 80.3906C192.91 81.4844 192.793 82.6562 192.559 83.9062C191.855 86.875 190.879 88.7891 189.629 89.6484C188.926 90.1172 188.184 90.2734 187.402 90.1172C186.699 89.9609 185.918 89.8047 185.059 89.6484C182.402 89.1797 180.137 89.4141 178.262 90.3516C173.652 92.8516 170.098 92.8516 167.598 90.3516C166.582 89.3359 165.957 87.7734 165.723 85.6641C165.41 81.8359 165.605 79.375 166.309 78.2812C167.09 77.1875 167.715 76.5234 168.184 76.2891C168.73 75.9766 169.199 75.7031 169.59 75.4688C170.449 75.0781 170.879 74.4141 170.879 73.4766C170.879 72.7734 170.957 72.0312 171.113 71.25C171.348 70.3906 171.543 69.4922 171.699 68.5547C172.09 66.2891 171.895 64.4141 171.113 62.9297C170.254 61.2109 169.863 59.8047 169.941 58.7109C170.098 57.6172 170.215 56.6406 170.293 55.7812L170.762 52.9688C170.918 50.7031 170.879 48.7891 170.645 47.2266C170.41 45.5859 170.215 43.9062 170.059 42.1875C169.98 40.3906 169.941 38.7109 169.941 37.1484C170.02 35.5859 170.059 34.1016 170.059 32.6953C170.059 29.4141 169.707 27.4609 169.004 26.8359C168.379 26.2109 167.793 25.8984 167.246 25.8984C166.699 25.8203 166.152 25.7812 165.605 25.7812C164.121 25.9375 163.184 25.7031 162.793 25.0781C161.934 24.2187 161.504 23.125 161.504 21.7969C161.504 20.4687 161.738 19.4531 162.207 18.75C162.754 18.0469 163.105 17.2656 163.262 16.4062C163.418 15.4688 163.496 14.4922 163.496 13.4766C163.652 11.1328 163.574 9.60938 163.262 8.90625C162.949 8.125 162.715 7.46094 162.559 6.91406C162.48 6.28906 162.441 5.70312 162.441 5.15625C162.441 2.89062 164.043 1.71875 167.246 1.64062C169.199 1.5625 171.191 1.60156 173.223 1.75781C175.254 1.83594 176.855 1.75781 178.027 1.52344C182.09 0.742188 185.332 0.429687 187.754 0.585938C190.254 0.742188 191.855 0.9375 192.559 1.17188C194.512 1.95312 195.566 4.10156 195.723 7.61719C195.801 9.25781 195.84 10.9766 195.84 12.7734C195.84 14.5703 195.918 16.4062 196.074 18.2812C196.387 22.1875 194.902 24.4922 191.621 25.1953ZM205.332 3.98438C207.129 4.14063 208.691 4.21875 210.02 4.21875C211.426 4.14063 213.496 4.14063 216.23 4.21875C220.762 4.45312 223.965 4.14063 225.84 3.28125C229.668 1.32813 232.754 1.09375 235.098 2.57812C236.191 3.20313 237.246 3.59375 238.262 3.75C239.277 3.90625 240.723 3.4375 242.598 2.34375C244.629 1.48437 246.309 1.28906 247.637 1.75781C248.965 2.22656 249.941 2.8125 250.566 3.51562C251.191 4.21875 251.582 5.46875 251.738 7.26562C251.973 8.98437 252.012 10.7031 251.855 12.4219C251.777 14.1406 251.621 15.7422 251.387 17.2266C250.918 21.2109 250.723 23.8281 250.801 25.0781C250.957 26.3281 251.113 27.6172 251.27 28.9453C251.504 30.2734 251.582 31.5625 251.504 32.8125C251.348 35.8594 250.098 37.5781 247.754 37.9688C246.035 38.2031 244.785 37.8125 244.004 36.7969C243.223 35.7031 242.559 34.5312 242.012 33.2812C241.543 31.9531 241.035 30.7813 240.488 29.7656C240.02 28.75 239.316 28.3984 238.379 28.7109C237.441 28.9453 236.855 29.9609 236.621 31.7578C236.387 33.4766 236.309 35.5469 236.387 37.9688C236.465 40.3125 236.621 42.7734 236.855 45.3516C237.09 47.8516 237.246 50 237.324 51.7969C237.402 53.5156 237.48 55.2734 237.559 57.0703C237.715 58.8672 237.793 60.5469 237.793 62.1094C237.793 65.4688 237.324 67.7734 236.387 69.0234C235.918 69.6484 235.684 70.3906 235.684 71.25C235.684 72.1094 235.762 73.0078 235.918 73.9453C236.152 74.8828 236.387 75.8203 236.621 76.7578C236.855 77.6953 236.973 78.8281 236.973 80.1562C236.973 83.2812 235.566 85.4688 232.754 86.7188C231.738 87.1875 230.801 87.9688 229.941 89.0625C229.082 90.1562 228.418 90.8594 227.949 91.1719C227.559 91.5625 227.051 91.6797 226.426 91.5234C225.879 91.4453 225.449 91.1719 225.137 90.7031C224.902 90.3125 224.668 89.8828 224.434 89.4141C223.965 88.1641 223.301 87.3438 222.441 86.9531C221.426 86.7188 220.801 85.8594 220.566 84.375C220.41 82.8906 220.293 81.6016 220.215 80.5078C220.215 79.3359 220.137 77.9297 219.98 76.2891C219.824 74.6484 219.316 73.3203 218.457 72.3047C217.598 71.2891 216.895 70.6641 216.348 70.4297C215.801 70.1172 215.449 69.4531 215.293 68.4375C215.137 67.3438 215.137 66.25 215.293 65.1562C215.527 64.0625 215.801 62.8516 216.113 61.5234C217.051 57.6953 217.559 54.1016 217.637 50.7422C217.871 44.4922 217.871 40.3516 217.637 38.3203C217.324 34.2578 216.23 32.2266 214.355 32.2266C213.418 32.3047 212.754 32.7344 212.363 33.5156C211.973 34.2188 211.543 35.0781 211.074 36.0938C209.98 38.6719 207.988 39.375 205.098 38.2031C204.082 37.7344 203.418 36.9922 203.105 35.9766C202.871 34.9609 202.715 33.7891 202.637 32.4609C202.637 31.0547 202.598 29.6094 202.52 28.125C202.52 26.5625 202.246 25.1172 201.699 23.7891C201.23 22.3828 200.762 21.0547 200.293 19.8047C199.824 18.5547 199.629 17.3047 199.707 16.0547C199.785 14.8047 200.059 13.5938 200.527 12.4219C201.074 11.25 201.23 10.0781 200.996 8.90625C200.84 7.73438 201.074 6.60156 201.699 5.50781C202.402 4.33594 203.613 3.82812 205.332 3.98438ZM259.004 67.9688L258.887 61.9922C258.887 60.8984 258.926 59.8828 259.004 58.9453C259.082 57.9297 259.004 56.6797 258.77 55.1953C258.379 52.6172 258.184 50.7422 258.184 49.5703C258.262 48.3203 258.262 47.3438 258.184 46.6406C258.184 45.8594 258.105 45.1562 257.949 44.5312C257.715 43.5938 257.129 42.1094 256.191 40.0781C255.332 38.0469 254.902 35.8594 254.902 33.5156C254.902 31.1719 255.41 29.2969 256.426 27.8906C257.363 26.4844 257.715 25.0391 257.48 23.5547C257.246 22.0703 257.051 20.5078 256.895 18.8672C256.816 17.1484 256.816 15.4297 256.895 13.7109C256.973 11.9141 257.363 10.1953 258.066 8.55469C259.785 4.57031 263.223 2.65625 268.379 2.8125C271.582 2.89062 274.355 3.20313 276.699 3.75C279.043 4.29687 280.762 4.53125 281.855 4.45312C282.949 4.375 284.629 3.98438 286.895 3.28125C290.176 2.03125 292.793 2.10938 294.746 3.51562C295.293 3.90625 295.801 4.21875 296.27 4.45312C296.816 4.60938 297.285 4.88281 297.676 5.27344C299.004 6.75781 299.395 10 298.848 15C298.691 16.4844 298.535 17.9688 298.379 19.4531C297.988 22.9688 297.988 25.5859 298.379 27.3047C298.77 29.0234 298.965 30.5469 298.965 31.875C299.043 33.125 299.004 34.2578 298.848 35.2734C298.379 37.5391 297.48 38.6719 296.152 38.6719C294.98 38.5938 294.121 38.2422 293.574 37.6172C293.105 36.9141 292.715 36.1719 292.402 35.3906C292.09 34.5312 291.738 33.7891 291.348 33.1641C291.035 32.4609 290.293 32.1094 289.121 32.1094C285.684 32.1094 283.379 31.7578 282.207 31.0547C281.113 30.2734 280.137 29.8437 279.277 29.7656C278.418 29.6094 277.598 29.6875 276.816 30C275.176 30.7031 274.199 31.9922 273.887 33.8672C273.652 35.7422 273.496 37.3828 273.418 38.7891C273.34 40.1953 273.34 41.4844 273.418 42.6562C273.574 45.3906 274.082 46.9531 274.941 47.3438C275.879 47.6562 276.66 47.6953 277.285 47.4609C277.91 47.1484 278.535 46.7969 279.16 46.4062C281.035 45.1562 282.949 44.5703 284.902 44.6484C286.934 44.6484 288.418 45.4297 289.355 46.9922C290.371 48.5547 290.801 50.0781 290.645 51.5625C290.488 52.9688 290.332 54.375 290.176 55.7812C290.098 57.1875 289.941 58.5156 289.707 59.7656C288.613 64.6094 286.348 65.5469 282.91 62.5781C278.457 62.2656 275.684 62.8125 274.59 64.2188C274.355 64.6094 274.121 65.4297 273.887 66.6797C273.652 67.9297 273.613 69.2578 273.77 70.6641C274.16 74.3359 275.918 76.2891 279.043 76.5234C281.074 76.6797 282.91 76.4062 284.551 75.7031C286.27 75 287.402 74.2188 287.949 73.3594C288.418 72.4219 289.004 71.9141 289.707 71.8359C290.41 71.6797 291.035 71.5625 291.582 71.4844C292.129 71.3281 292.676 71.25 293.223 71.25C293.77 71.25 294.316 71.3281 294.863 71.4844C296.27 71.9531 297.09 73.0469 297.324 74.7656C297.637 76.4844 297.48 78.0469 296.855 79.4531C296.23 80.8594 295.801 82.1484 295.566 83.3203C295.41 84.4141 295.254 85.2344 295.098 85.7812C294.941 86.3281 294.473 87.0312 293.691 87.8906C292.988 88.6719 292.402 89.3359 291.934 89.8828C291.543 90.4297 290.879 90.3125 289.941 89.5312C288.223 88.2031 286.152 88.9844 283.73 91.875C283.105 92.7344 282.441 93.3594 281.738 93.75C281.035 94.1406 279.941 94.2969 278.457 94.2188C276.973 94.1406 275.801 93.75 274.941 93.0469C274.082 92.3438 273.301 91.6406 272.598 90.9375C271.426 89.4531 269.395 88.9062 266.504 89.2969C264.785 89.5312 263.379 88.7891 262.285 87.0703C262.051 86.8359 261.855 86.4062 261.699 85.7812C261.621 85.1562 261.504 84.4531 261.348 83.6719C260.801 81.6406 260.293 80.3516 259.824 79.8047C259.434 79.1797 259.199 78.3984 259.121 77.4609C259.121 76.5234 259.043 75.5469 258.887 74.5312C258.73 73.4375 258.613 72.6562 258.535 72.1875C258.457 71.6406 258.496 71.0156 258.652 70.3125C258.887 69.6094 259.004 68.8281 259.004 67.9688ZM341.152 91.4062C340.371 91.6406 339.473 91.5625 338.457 91.1719C337.52 90.8594 336.855 90.2344 336.465 89.2969C336.074 88.2812 335.801 87.1484 335.645 85.8984C335.566 84.5703 335.566 83.1641 335.645 81.6797C335.723 80.1953 335.762 78.75 335.762 77.3438C335.762 74.2188 335.254 72.2266 334.238 71.3672C332.129 69.8047 331.27 65.8203 331.66 59.4141C332.051 55.7422 332.48 52.8125 332.949 50.625C333.73 47.0312 334.082 43.9844 334.004 41.4844C334.004 38.9844 334.082 37.0312 334.238 35.625C334.473 34.2188 334.707 33.0469 334.941 32.1094C335.254 31.1719 335.605 30.1953 335.996 29.1797C336.387 28.1641 336.738 26.4844 337.051 24.1406C337.832 18.2812 338.535 14.6484 339.16 13.2422C340.02 11.2891 341.035 9.29688 342.207 7.26562C343.457 5.15625 344.473 3.75 345.254 3.04688C347.051 1.71875 349.629 1.60156 352.988 2.69531C355.488 3.55469 357.793 3.82812 359.902 3.51562C362.09 3.20313 363.73 3.08594 364.824 3.16406C365.996 3.16406 367.285 3.59375 368.691 4.45312C370.098 5.23437 371.191 6.21094 371.973 7.38281C372.754 8.47656 373.301 9.6875 373.613 11.0156C374.16 13.2813 374.199 16.1719 373.73 19.6875C373.262 23.125 373.066 25.9375 373.145 28.125C373.301 30.2344 373.77 32.2656 374.551 34.2188C375.41 36.0938 375.957 37.6172 376.191 38.7891C376.504 39.8828 376.738 41.0156 376.895 42.1875C377.129 43.2812 377.285 44.4922 377.363 45.8203C377.52 47.0703 377.754 48.5156 378.066 50.1562C378.457 51.7969 378.652 53.125 378.652 54.1406C378.73 55.0781 378.73 55.8594 378.652 56.4844C378.574 57.1094 378.457 57.6953 378.301 58.2422C378.223 58.7109 378.262 59.4922 378.418 60.5859C378.652 61.6016 378.652 62.7344 378.418 63.9844C378.262 65.2344 378.066 66.4453 377.832 67.6172C376.973 71.2109 376.621 73.75 376.777 75.2344C377.09 77.8906 377.09 79.8047 376.777 80.9766C376.465 82.0703 376.152 82.9688 375.84 83.6719C375.605 84.375 375.293 85.3516 374.902 86.6016C374.59 87.8516 373.887 88.9844 372.793 90C371.699 91.0156 370.645 91.3281 369.629 90.9375C368.691 90.5469 368.066 90 367.754 89.2969C367.52 88.5156 367.285 87.7344 367.051 86.9531C366.895 86.1719 366.66 85.4688 366.348 84.8438C366.113 84.2188 365.645 83.8672 364.941 83.7891C363.691 83.6328 363.027 82.9297 362.949 81.6797C362.871 80.3516 362.871 79.2188 362.949 78.2812C363.105 77.2656 363.066 76.25 362.832 75.2344C362.598 74.2188 362.207 73.2422 361.66 72.3047C360.254 69.8828 358.613 68.5547 356.738 68.3203C353.926 67.9297 351.973 69.2969 350.879 72.4219C350.645 73.2031 350.449 74.2578 350.293 75.5859C350.215 76.8359 349.902 77.9688 349.355 78.9844C348.887 80 348.34 80.8594 347.715 81.5625C347.168 82.2656 346.621 82.9297 346.074 83.5547C345.605 84.1016 345.293 84.8047 345.137 85.6641C344.512 89.0234 343.184 90.9375 341.152 91.4062ZM351.582 42.3047C350.02 46.5234 349.824 49.8828 350.996 52.3828C351.777 53.7891 352.793 54.5312 354.043 54.6094C356.309 54.8438 357.637 54.6875 358.027 54.1406C358.496 53.5156 359.004 52.8906 359.551 52.2656C360.176 51.5625 360.41 50.5469 360.254 49.2188C360.098 47.8125 359.98 46.6016 359.902 45.5859C359.824 44.4922 359.434 43.2812 358.73 41.9531C358.105 40.625 357.676 39.2188 357.441 37.7344C357.207 36.1719 357.051 34.6875 356.973 33.2812C356.66 30.1562 355.957 28.5938 354.863 28.5938C354.082 28.5938 353.574 29.0234 353.34 29.8828C353.184 30.6641 353.066 31.7188 352.988 33.0469C352.91 37.1094 352.441 40.1953 351.582 42.3047ZM395.762 4.45312C399.668 2.89062 401.777 2.73438 402.09 3.98438C404.043 3.51562 405.488 4.10156 406.426 5.74219C406.738 6.28906 407.324 7.42188 408.184 9.14062C409.121 10.8594 410.098 12.6953 411.113 14.6484C412.207 16.6016 413.223 18.4375 414.16 20.1562C415.098 21.875 415.723 23.0469 416.035 23.6719C416.348 24.2187 416.738 24.5313 417.207 24.6094C417.676 24.6875 418.145 24.5703 418.613 24.2578C419.629 23.4766 419.902 22.3047 419.434 20.7422C419.043 19.1797 418.848 17.9688 418.848 17.1094C418.926 16.1719 419.043 15.3125 419.199 14.5312C419.668 12.3438 419.746 10.5859 419.434 9.25781C419.121 7.92969 418.965 6.67969 418.965 5.50781C418.965 3.16406 420.879 1.99219 424.707 1.99219C425.488 1.99219 426.387 2.03125 427.402 2.10938C428.418 2.10938 429.941 2.03125 431.973 1.875C434.004 1.64062 435.762 2.1875 437.246 3.51562C438.809 4.76562 439.316 7.03125 438.77 10.3125C438.066 14.7656 437.754 17.7734 437.832 19.3359C437.91 20.8203 437.949 22.2266 437.949 23.5547C437.949 24.9609 437.715 27.0312 437.246 29.7656C436.387 34.6094 436.152 38.0469 436.543 40.0781C436.855 41.875 437.012 43.2031 437.012 44.0625V45.9375C437.012 46.1719 437.09 46.6797 437.246 47.4609C437.402 48.2422 437.363 49.0625 437.129 49.9219C436.895 50.7031 436.855 51.5625 437.012 52.5C437.168 53.4375 436.973 54.5312 436.426 55.7812C435.879 56.9531 435.605 58.2812 435.605 59.7656C435.684 61.1719 435.605 62.4609 435.371 63.6328C435.137 64.8047 435.254 66.1719 435.723 67.7344C436.426 70.1562 435.84 74.4141 433.965 80.5078C433.652 81.9922 433.145 82.9688 432.441 83.4375C431.816 83.8281 431.348 84.1406 431.035 84.375C430.723 84.6094 430.488 85.1172 430.332 85.8984C429.941 87.4609 429.121 88.1641 427.871 88.0078C426.23 87.7734 424.902 86.1328 423.887 83.0859C422.48 78.8672 421.348 76.4062 420.488 75.7031C419.629 75 418.965 74.0234 418.496 72.7734C418.105 71.5234 417.754 70.2344 417.441 68.9062C416.816 65.625 416.191 63.75 415.566 63.2812C414.941 62.7344 414.434 61.7188 414.043 60.2344C413.652 58.75 413.262 57.6953 412.871 57.0703C412.48 56.4453 412.09 55.7422 411.699 54.9609C411.387 54.1797 411.035 53.3984 410.645 52.6172C409.629 50.6641 408.652 49.8047 407.715 50.0391C407.168 50.1953 406.777 50.8984 406.543 52.1484C406.387 53.3203 406.23 54.7656 406.074 56.4844C405.605 61.4844 404.824 65.0781 403.73 67.2656C404.434 69.2969 404.941 71.1719 405.254 72.8906C405.645 74.5312 405.566 76.5234 405.02 78.8672C404.551 81.1328 404.16 82.9688 403.848 84.375C403.535 85.7812 403.184 87.0312 402.793 88.125C402.48 89.1406 402.09 89.9219 401.621 90.4688C401.152 91.0156 400.566 91.2109 399.863 91.0547C399.16 90.9766 398.691 90.7812 398.457 90.4688C398.223 90.1562 397.988 89.8438 397.754 89.5312C397.207 88.5156 396.27 87.7734 394.941 87.3047C393.613 86.8359 392.676 86.25 392.129 85.5469C391.582 84.8438 391.23 84.0234 391.074 83.0859C390.918 82.1484 390.801 81.1328 390.723 80.0391C390.723 78.9453 390.449 77.7734 389.902 76.5234C389.434 75.1953 389.199 74.1016 389.199 73.2422C389.199 72.3828 389.277 71.6406 389.434 71.0156C389.59 70.3125 389.746 69.6484 389.902 69.0234C390.059 68.3203 389.902 67.2656 389.434 65.8594C388.496 62.9688 388.77 60.5859 390.254 58.7109C391.348 57.1484 391.816 55.8203 391.66 54.7266C391.191 52.4609 390.293 50.9766 388.965 50.2734C388.34 49.8828 388.027 49.4141 388.027 48.8672C388.027 47.6953 387.832 46.8359 387.441 46.2891C387.129 45.6641 387.129 44.8828 387.441 43.9453C387.754 43.0078 387.715 42.2266 387.324 41.6016C387.324 41.5234 387.207 40.7422 386.973 39.2578C386.816 37.6953 386.621 35.7422 386.387 33.3984C386.23 30.9766 386.035 28.3984 385.801 25.6641C385.566 22.8516 385.41 20.1562 385.332 17.5781C385.02 11.6406 385.059 8.16406 385.449 7.14844C385.918 6.13281 386.582 5.39062 387.441 4.92188C388.379 4.45312 389.355 4.14063 390.371 3.98438C392.559 3.75 394.355 3.90625 395.762 4.45312ZM474.512 25.1953C471.855 25.8984 471.348 30.4297 472.988 38.7891C473.535 41.0547 473.809 42.9688 473.809 44.5312C473.887 46.0156 473.691 47.6562 473.223 49.4531C472.754 51.25 472.52 52.6953 472.52 53.7891C472.52 54.8828 472.363 56.1719 472.051 57.6562C472.129 59.2969 472.09 60.9766 471.934 62.6953C471.855 64.3359 471.777 65.9375 471.699 67.5C471.465 71.3281 471.426 73.5938 471.582 74.2969C471.738 75 471.973 75.4688 472.285 75.7031C472.676 75.8594 473.105 76.0156 473.574 76.1719C474.668 76.5625 475.332 77.0703 475.566 77.6953C475.801 78.3203 475.879 79.2188 475.801 80.3906C475.801 81.4844 475.684 82.6562 475.449 83.9062C474.746 86.875 473.77 88.7891 472.52 89.6484C471.816 90.1172 471.074 90.2734 470.293 90.1172C469.59 89.9609 468.809 89.8047 467.949 89.6484C465.293 89.1797 463.027 89.4141 461.152 90.3516C456.543 92.8516 452.988 92.8516 450.488 90.3516C449.473 89.3359 448.848 87.7734 448.613 85.6641C448.301 81.8359 448.496 79.375 449.199 78.2812C449.98 77.1875 450.605 76.5234 451.074 76.2891C451.621 75.9766 452.09 75.7031 452.48 75.4688C453.34 75.0781 453.77 74.4141 453.77 73.4766C453.77 72.7734 453.848 72.0312 454.004 71.25C454.238 70.3906 454.434 69.4922 454.59 68.5547C454.98 66.2891 454.785 64.4141 454.004 62.9297C453.145 61.2109 452.754 59.8047 452.832 58.7109C452.988 57.6172 453.105 56.6406 453.184 55.7812L453.652 52.9688C453.809 50.7031 453.77 48.7891 453.535 47.2266C453.301 45.5859 453.105 43.9062 452.949 42.1875C452.871 40.3906 452.832 38.7109 452.832 37.1484C452.91 35.5859 452.949 34.1016 452.949 32.6953C452.949 29.4141 452.598 27.4609 451.895 26.8359C451.27 26.2109 450.684 25.8984 450.137 25.8984C449.59 25.8203 449.043 25.7812 448.496 25.7812C447.012 25.9375 446.074 25.7031 445.684 25.0781C444.824 24.2187 444.395 23.125 444.395 21.7969C444.395 20.4687 444.629 19.4531 445.098 18.75C445.645 18.0469 445.996 17.2656 446.152 16.4062C446.309 15.4688 446.387 14.4922 446.387 13.4766C446.543 11.1328 446.465 9.60938 446.152 8.90625C445.84 8.125 445.605 7.46094 445.449 6.91406C445.371 6.28906 445.332 5.70312 445.332 5.15625C445.332 2.89062 446.934 1.71875 450.137 1.64062C452.09 1.5625 454.082 1.60156 456.113 1.75781C458.145 1.83594 459.746 1.75781 460.918 1.52344C464.98 0.742188 468.223 0.429687 470.645 0.585938C473.145 0.742188 474.746 0.9375 475.449 1.17188C477.402 1.95312 478.457 4.10156 478.613 7.61719C478.691 9.25781 478.73 10.9766 478.73 12.7734C478.73 14.5703 478.809 16.4062 478.965 18.2812C479.277 22.1875 477.793 24.4922 474.512 25.1953ZM541.309 89.1797C538.73 89.1797 537.559 86.9922 537.793 82.6172C537.949 79.6484 537.949 77.0312 537.793 74.7656C537.715 72.5 537.246 70.1172 536.387 67.6172C535.527 65.1172 534.941 62.8516 534.629 60.8203C534.316 58.7891 534.551 56.5625 535.332 54.1406C536.426 50.7031 536.504 46.875 535.566 42.6562C535.41 41.9531 535.332 41.25 535.332 40.5469C535.332 39.7656 535.293 39.0625 535.215 38.4375C535.137 36.9531 534.746 36.2109 534.043 36.2109C533.418 36.2109 532.988 36.7578 532.754 37.8516C532.285 40.6641 531.738 42.8516 531.113 44.4141C529.395 48.4766 528.73 51.8359 529.121 54.4922C530.137 58.3984 530.059 61.4062 528.887 63.5156C528.34 64.5312 527.676 65.2734 526.895 65.7422C526.113 66.2109 525.605 66.6406 525.371 67.0312C525.137 67.3438 525.02 67.9688 525.02 68.9062C525.098 69.7656 524.902 70.4688 524.434 71.0156C523.965 71.5625 523.652 72.1484 523.496 72.7734C523.418 73.3984 523.301 73.9844 523.145 74.5312C522.754 75.9375 521.895 76.5625 520.566 76.4062C519.238 76.25 518.301 75.4297 517.754 73.9453C517.285 72.4609 516.895 70.7422 516.582 68.7891C516.348 66.8359 516.074 64.8828 515.762 62.9297C515.527 60.9766 515.02 59.4922 514.238 58.4766C513.535 57.4609 513.027 56.4453 512.715 55.4297C512.48 54.4141 512.285 53.3594 512.129 52.2656C511.738 49.6094 511.23 47.7734 510.605 46.7578C510.059 45.8203 509.629 44.0625 509.316 41.4844C509.004 38.9062 508.691 37.1484 508.379 36.2109C508.145 35.2734 507.676 34.8047 506.973 34.8047C506.191 34.8828 505.762 35.4688 505.684 36.5625C505.605 37.6562 505.723 38.5547 506.035 39.2578C506.348 39.9609 506.387 41.2109 506.152 43.0078C505.918 44.8047 505.957 46.3672 506.27 47.6953C506.582 49.0234 506.895 50.2344 507.207 51.3281C507.52 52.3438 507.793 53.4375 508.027 54.6094C508.809 57.8125 508.965 60.5469 508.496 62.8125C508.105 65 507.871 66.7188 507.793 67.9688C507.715 69.1406 507.207 70 506.27 70.5469C505.41 71.0938 504.863 71.6797 504.629 72.3047C504.473 72.8516 504.355 73.5156 504.277 74.2969C504.199 75 504.121 75.7812 504.043 76.6406C503.965 77.4219 503.691 78.3984 503.223 79.5703C502.207 82.0703 501.855 83.9062 502.168 85.0781C502.559 86.25 502.363 87.5 501.582 88.8281C500.879 90.1562 499.824 90.8594 498.418 90.9375C497.09 91.0938 495.996 90.8594 495.137 90.2344C494.355 89.6094 493.652 88.8281 493.027 87.8906C490.449 83.6719 489.434 78.9062 489.98 73.5938C490.059 72.4219 490.137 71.25 490.215 70.0781C490.371 68.9062 490.371 67.4609 490.215 65.7422C489.98 61.5234 489.004 58.2031 487.285 55.7812C486.113 54.1406 485.449 52.1484 485.293 49.8047C484.902 45.7422 485.137 42.8516 485.996 41.1328C486.387 40.3516 486.582 39.1406 486.582 37.5C486.582 35.7812 486.543 34.5703 486.465 33.8672C486.465 33.0859 486.504 32.5391 486.582 32.2266C486.738 31.8359 486.816 31.2109 486.816 30.3516C486.895 29.4141 486.934 28.3594 486.934 27.1875C486.855 25.0781 486.582 23.1641 486.113 21.4453C485.645 19.6484 485.332 18.125 485.176 16.875C485.098 15.5469 485.137 14.2578 485.293 13.0078C485.527 10.1953 485.996 8.20312 486.699 7.03125C487.48 5.85938 488.184 5.19531 488.809 5.03906C489.434 4.80469 490.137 4.6875 490.918 4.6875C491.699 4.6875 492.363 4.57031 492.91 4.33594C493.457 4.02344 494.043 3.75 494.668 3.51562C495.996 2.96875 497.285 2.92969 498.535 3.39844C499.785 3.86719 500.84 4.02344 501.699 3.86719C502.637 3.71094 503.496 3.51562 504.277 3.28125C506.309 2.5 507.832 2.30469 508.848 2.69531C509.941 3.08594 510.918 3.75 511.777 4.6875C512.637 5.625 513.105 6.40625 513.184 7.03125C513.34 7.57812 513.535 7.96875 513.77 8.20312C514.004 8.4375 514.277 8.67188 514.59 8.90625C515.215 9.45312 515.527 10.3125 515.527 11.4844C515.527 13.2031 515.996 15.5078 516.934 18.3984C518.574 23.8672 520.137 26.8359 521.621 27.3047C521.934 27.3828 522.48 27.1484 523.262 26.6016C524.043 26.0547 524.59 25.2344 524.902 24.1406C525.371 22.2656 525.527 20.8594 525.371 19.9219C525.215 18.9063 525.332 18.125 525.723 17.5781C526.191 17.0313 526.426 16.5234 526.426 16.0547C526.504 15.5859 526.582 14.9609 526.66 14.1797C526.738 13.3984 526.895 12.5 527.129 11.4844C527.754 8.90625 528.652 6.95313 529.824 5.625C530.996 4.29687 532.207 3.51562 533.457 3.28125C534.707 3.04688 535.957 3.00781 537.207 3.16406C538.535 3.24219 539.824 3.35937 541.074 3.51562C542.402 3.59375 543.73 3.35937 545.059 2.8125C548.574 1.25 550.996 1.21094 552.324 2.69531C552.715 3.08594 553.066 3.35937 553.379 3.51562C553.77 3.67188 554.121 3.82812 554.434 3.98438C555.059 4.45312 555.41 5.19531 555.488 6.21094C555.645 7.14844 555.801 7.8125 555.957 8.20312C556.113 8.51562 556.27 8.82813 556.426 9.14062C557.285 11.1719 557.832 14.6875 558.066 19.6875C558.301 27.8906 558.145 32.5781 557.598 33.75C558.145 36.9531 557.871 39.2188 556.777 40.5469C556.543 40.7812 556.309 41.0156 556.074 41.25C554.668 42.6562 553.809 44.5312 553.496 46.875C553.34 47.8125 553.34 48.5938 553.496 49.2188C553.73 49.8438 553.848 50.5078 553.848 51.2109C553.848 51.9141 553.809 52.5391 553.73 53.0859C553.73 53.6328 553.73 54.2188 553.73 54.8438C553.574 57.1094 553.535 58.75 553.613 59.7656C553.77 60.7812 553.77 61.5234 553.613 61.9922C553.535 62.4609 553.418 62.8906 553.262 63.2812C552.871 64.4531 552.754 65.4688 552.91 66.3281C553.066 67.1094 553.066 67.7344 552.91 68.2031C552.754 68.6719 552.559 69.1406 552.324 69.6094C551.699 70.9375 551.426 72.6562 551.504 74.7656C551.66 76.7969 551.582 78.5156 551.27 79.9219C551.035 81.3281 550.918 82.7734 550.918 84.2578C550.762 88.3984 550.215 90.3125 549.277 90C548.887 89.8438 548.535 90.0391 548.223 90.5859C547.988 91.1328 547.754 91.8359 547.52 92.6953C547.363 93.5547 546.855 93.8281 545.996 93.5156C545.137 93.2812 544.551 92.6562 544.238 91.6406C544.004 90.625 543.652 89.9609 543.184 89.6484C542.793 89.3359 542.168 89.1797 541.309 89.1797ZM572.012 91.4062C571.23 91.6406 570.332 91.5625 569.316 91.1719C568.379 90.8594 567.715 90.2344 567.324 89.2969C566.934 88.2812 566.66 87.1484 566.504 85.8984C566.426 84.5703 566.426 83.1641 566.504 81.6797C566.582 80.1953 566.621 78.75 566.621 77.3438C566.621 74.2188 566.113 72.2266 565.098 71.3672C562.988 69.8047 562.129 65.8203 562.52 59.4141C562.91 55.7422 563.34 52.8125 563.809 50.625C564.59 47.0312 564.941 43.9844 564.863 41.4844C564.863 38.9844 564.941 37.0312 565.098 35.625C565.332 34.2188 565.566 33.0469 565.801 32.1094C566.113 31.1719 566.465 30.1953 566.855 29.1797C567.246 28.1641 567.598 26.4844 567.91 24.1406C568.691 18.2812 569.395 14.6484 570.02 13.2422C570.879 11.2891 571.895 9.29688 573.066 7.26562C574.316 5.15625 575.332 3.75 576.113 3.04688C577.91 1.71875 580.488 1.60156 583.848 2.69531C586.348 3.55469 588.652 3.82812 590.762 3.51562C592.949 3.20313 594.59 3.08594 595.684 3.16406C596.855 3.16406 598.145 3.59375 599.551 4.45312C600.957 5.23437 602.051 6.21094 602.832 7.38281C603.613 8.47656 604.16 9.6875 604.473 11.0156C605.02 13.2813 605.059 16.1719 604.59 19.6875C604.121 23.125 603.926 25.9375 604.004 28.125C604.16 30.2344 604.629 32.2656 605.41 34.2188C606.27 36.0938 606.816 37.6172 607.051 38.7891C607.363 39.8828 607.598 41.0156 607.754 42.1875C607.988 43.2812 608.145 44.4922 608.223 45.8203C608.379 47.0703 608.613 48.5156 608.926 50.1562C609.316 51.7969 609.512 53.125 609.512 54.1406C609.59 55.0781 609.59 55.8594 609.512 56.4844C609.434 57.1094 609.316 57.6953 609.16 58.2422C609.082 58.7109 609.121 59.4922 609.277 60.5859C609.512 61.6016 609.512 62.7344 609.277 63.9844C609.121 65.2344 608.926 66.4453 608.691 67.6172C607.832 71.2109 607.48 73.75 607.637 75.2344C607.949 77.8906 607.949 79.8047 607.637 80.9766C607.324 82.0703 607.012 82.9688 606.699 83.6719C606.465 84.375 606.152 85.3516 605.762 86.6016C605.449 87.8516 604.746 88.9844 603.652 90C602.559 91.0156 601.504 91.3281 600.488 90.9375C599.551 90.5469 598.926 90 598.613 89.2969C598.379 88.5156 598.145 87.7344 597.91 86.9531C597.754 86.1719 597.52 85.4688 597.207 84.8438C596.973 84.2188 596.504 83.8672 595.801 83.7891C594.551 83.6328 593.887 82.9297 593.809 81.6797C593.73 80.3516 593.73 79.2188 593.809 78.2812C593.965 77.2656 593.926 76.25 593.691 75.2344C593.457 74.2188 593.066 73.2422 592.52 72.3047C591.113 69.8828 589.473 68.5547 587.598 68.3203C584.785 67.9297 582.832 69.2969 581.738 72.4219C581.504 73.2031 581.309 74.2578 581.152 75.5859C581.074 76.8359 580.762 77.9688 580.215 78.9844C579.746 80 579.199 80.8594 578.574 81.5625C578.027 82.2656 577.48 82.9297 576.934 83.5547C576.465 84.1016 576.152 84.8047 575.996 85.6641C575.371 89.0234 574.043 90.9375 572.012 91.4062ZM582.441 42.3047C580.879 46.5234 580.684 49.8828 581.855 52.3828C582.637 53.7891 583.652 54.5312 584.902 54.6094C587.168 54.8438 588.496 54.6875 588.887 54.1406C589.355 53.5156 589.863 52.8906 590.41 52.2656C591.035 51.5625 591.27 50.5469 591.113 49.2188C590.957 47.8125 590.84 46.6016 590.762 45.5859C590.684 44.4922 590.293 43.2812 589.59 41.9531C588.965 40.625 588.535 39.2188 588.301 37.7344C588.066 36.1719 587.91 34.6875 587.832 33.2812C587.52 30.1562 586.816 28.5938 585.723 28.5938C584.941 28.5938 584.434 29.0234 584.199 29.8828C584.043 30.6641 583.926 31.7188 583.848 33.0469C583.77 37.1094 583.301 40.1953 582.441 42.3047ZM615.605 3.98438C617.402 4.14063 618.965 4.21875 620.293 4.21875C621.699 4.14063 623.77 4.14063 626.504 4.21875C631.035 4.45312 634.238 4.14063 636.113 3.28125C639.941 1.32813 643.027 1.09375 645.371 2.57812C646.465 3.20313 647.52 3.59375 648.535 3.75C649.551 3.90625 650.996 3.4375 652.871 2.34375C654.902 1.48437 656.582 1.28906 657.91 1.75781C659.238 2.22656 660.215 2.8125 660.84 3.51562C661.465 4.21875 661.855 5.46875 662.012 7.26562C662.246 8.98437 662.285 10.7031 662.129 12.4219C662.051 14.1406 661.895 15.7422 661.66 17.2266C661.191 21.2109 660.996 23.8281 661.074 25.0781C661.23 26.3281 661.387 27.6172 661.543 28.9453C661.777 30.2734 661.855 31.5625 661.777 32.8125C661.621 35.8594 660.371 37.5781 658.027 37.9688C656.309 38.2031 655.059 37.8125 654.277 36.7969C653.496 35.7031 652.832 34.5312 652.285 33.2812C651.816 31.9531 651.309 30.7813 650.762 29.7656C650.293 28.75 649.59 28.3984 648.652 28.7109C647.715 28.9453 647.129 29.9609 646.895 31.7578C646.66 33.4766 646.582 35.5469 646.66 37.9688C646.738 40.3125 646.895 42.7734 647.129 45.3516C647.363 47.8516 647.52 50 647.598 51.7969C647.676 53.5156 647.754 55.2734 647.832 57.0703C647.988 58.8672 648.066 60.5469 648.066 62.1094C648.066 65.4688 647.598 67.7734 646.66 69.0234C646.191 69.6484 645.957 70.3906 645.957 71.25C645.957 72.1094 646.035 73.0078 646.191 73.9453C646.426 74.8828 646.66 75.8203 646.895 76.7578C647.129 77.6953 647.246 78.8281 647.246 80.1562C647.246 83.2812 645.84 85.4688 643.027 86.7188C642.012 87.1875 641.074 87.9688 640.215 89.0625C639.355 90.1562 638.691 90.8594 638.223 91.1719C637.832 91.5625 637.324 91.6797 636.699 91.5234C636.152 91.4453 635.723 91.1719 635.41 90.7031C635.176 90.3125 634.941 89.8828 634.707 89.4141C634.238 88.1641 633.574 87.3438 632.715 86.9531C631.699 86.7188 631.074 85.8594 630.84 84.375C630.684 82.8906 630.566 81.6016 630.488 80.5078C630.488 79.3359 630.41 77.9297 630.254 76.2891C630.098 74.6484 629.59 73.3203 628.73 72.3047C627.871 71.2891 627.168 70.6641 626.621 70.4297C626.074 70.1172 625.723 69.4531 625.566 68.4375C625.41 67.3438 625.41 66.25 625.566 65.1562C625.801 64.0625 626.074 62.8516 626.387 61.5234C627.324 57.6953 627.832 54.1016 627.91 50.7422C628.145 44.4922 628.145 40.3516 627.91 38.3203C627.598 34.2578 626.504 32.2266 624.629 32.2266C623.691 32.3047 623.027 32.7344 622.637 33.5156C622.246 34.2188 621.816 35.0781 621.348 36.0938C620.254 38.6719 618.262 39.375 615.371 38.2031C614.355 37.7344 613.691 36.9922 613.379 35.9766C613.145 34.9609 612.988 33.7891 612.91 32.4609C612.91 31.0547 612.871 29.6094 612.793 28.125C612.793 26.5625 612.52 25.1172 611.973 23.7891C611.504 22.3828 611.035 21.0547 610.566 19.8047C610.098 18.5547 609.902 17.3047 609.98 16.0547C610.059 14.8047 610.332 13.5938 610.801 12.4219C611.348 11.25 611.504 10.0781 611.27 8.90625C611.113 7.73438 611.348 6.60156 611.973 5.50781C612.676 4.33594 613.887 3.82812 615.605 3.98438ZM695.293 25.1953C692.637 25.8984 692.129 30.4297 693.77 38.7891C694.316 41.0547 694.59 42.9688 694.59 44.5312C694.668 46.0156 694.473 47.6562 694.004 49.4531C693.535 51.25 693.301 52.6953 693.301 53.7891C693.301 54.8828 693.145 56.1719 692.832 57.6562C692.91 59.2969 692.871 60.9766 692.715 62.6953C692.637 64.3359 692.559 65.9375 692.48 67.5C692.246 71.3281 692.207 73.5938 692.363 74.2969C692.52 75 692.754 75.4688 693.066 75.7031C693.457 75.8594 693.887 76.0156 694.355 76.1719C695.449 76.5625 696.113 77.0703 696.348 77.6953C696.582 78.3203 696.66 79.2188 696.582 80.3906C696.582 81.4844 696.465 82.6562 696.23 83.9062C695.527 86.875 694.551 88.7891 693.301 89.6484C692.598 90.1172 691.855 90.2734 691.074 90.1172C690.371 89.9609 689.59 89.8047 688.73 89.6484C686.074 89.1797 683.809 89.4141 681.934 90.3516C677.324 92.8516 673.77 92.8516 671.27 90.3516C670.254 89.3359 669.629 87.7734 669.395 85.6641C669.082 81.8359 669.277 79.375 669.98 78.2812C670.762 77.1875 671.387 76.5234 671.855 76.2891C672.402 75.9766 672.871 75.7031 673.262 75.4688C674.121 75.0781 674.551 74.4141 674.551 73.4766C674.551 72.7734 674.629 72.0312 674.785 71.25C675.02 70.3906 675.215 69.4922 675.371 68.5547C675.762 66.2891 675.566 64.4141 674.785 62.9297C673.926 61.2109 673.535 59.8047 673.613 58.7109C673.77 57.6172 673.887 56.6406 673.965 55.7812L674.434 52.9688C674.59 50.7031 674.551 48.7891 674.316 47.2266C674.082 45.5859 673.887 43.9062 673.73 42.1875C673.652 40.3906 673.613 38.7109 673.613 37.1484C673.691 35.5859 673.73 34.1016 673.73 32.6953C673.73 29.4141 673.379 27.4609 672.676 26.8359C672.051 26.2109 671.465 25.8984 670.918 25.8984C670.371 25.8203 669.824 25.7812 669.277 25.7812C667.793 25.9375 666.855 25.7031 666.465 25.0781C665.605 24.2187 665.176 23.125 665.176 21.7969C665.176 20.4687 665.41 19.4531 665.879 18.75C666.426 18.0469 666.777 17.2656 666.934 16.4062C667.09 15.4688 667.168 14.4922 667.168 13.4766C667.324 11.1328 667.246 9.60938 666.934 8.90625C666.621 8.125 666.387 7.46094 666.23 6.91406C666.152 6.28906 666.113 5.70312 666.113 5.15625C666.113 2.89062 667.715 1.71875 670.918 1.64062C672.871 1.5625 674.863 1.60156 676.895 1.75781C678.926 1.83594 680.527 1.75781 681.699 1.52344C685.762 0.742188 689.004 0.429687 691.426 0.585938C693.926 0.742188 695.527 0.9375 696.23 1.17188C698.184 1.95312 699.238 4.10156 699.395 7.61719C699.473 9.25781 699.512 10.9766 699.512 12.7734C699.512 14.5703 699.59 16.4062 699.746 18.2812C700.059 22.1875 698.574 24.4922 695.293 25.1953ZM716.855 9.14062C717.715 8.35938 718.457 7.53906 719.082 6.67969C719.707 5.74219 720.527 4.88281 721.543 4.10156C724.277 1.83594 727.012 1.17188 729.746 2.10938C733.105 3.35937 736.191 4.14063 739.004 4.45312C741.816 4.76562 743.848 5.46875 745.098 6.5625C746.426 7.65625 747.559 8.82813 748.496 10.0781C750.762 13.0469 752.129 16.2891 752.598 19.8047C752.676 21.1328 752.91 22.0703 753.301 22.6172C754.316 24.3359 754.629 26.6406 754.238 29.5312C753.926 32.4219 753.809 34.4531 753.887 35.625C754.043 36.7188 754.238 37.5391 754.473 38.0859C754.785 38.6328 755.059 39.1797 755.293 39.7266C755.918 41.2109 756.23 42.6953 756.23 44.1797C756.23 46.0547 755.605 47.9297 754.355 49.8047C753.809 50.5078 753.613 51.875 753.77 53.9062C753.926 55.9375 754.043 57.9688 754.121 60C754.199 65.0781 753.926 68.2422 753.301 69.4922C752.676 70.6641 752.207 71.3672 751.895 71.6016C751.66 71.8359 751.426 72.0312 751.191 72.1875C750.02 72.7344 748.965 74.375 748.027 77.1094C747.168 79.7656 745.996 81.9531 744.512 83.6719C743.027 85.3125 741.465 86.6797 739.824 87.7734C738.262 88.7891 737.012 89.5703 736.074 90.1172C735.215 90.7422 734.59 91.3281 734.199 91.875C733.809 92.4219 733.418 92.9688 733.027 93.5156C732.012 94.7656 730.723 95.3906 729.16 95.3906C726.504 95.3906 724.551 94.7656 723.301 93.5156C722.754 92.8125 722.168 91.7969 721.543 90.4688C720.371 88.3594 718.809 86.6406 716.855 85.3125C714.668 83.8281 713.34 81.6016 712.871 78.6328C712.637 77.6172 712.559 76.6016 712.637 75.5859C712.793 74.5703 712.754 73.2812 712.52 71.7188C712.363 70.1562 712.051 68.75 711.582 67.5C711.113 66.25 710.84 65.0781 710.762 63.9844C710.371 60.7031 709.277 58.9453 707.48 58.7109C706.152 58.5547 705.371 56.5625 705.137 52.7344C705.059 50.7812 705.137 48.9453 705.371 47.2266C705.605 45.4297 705.918 43.9062 706.309 42.6562C706.934 40.3906 707.129 37.7734 706.895 34.8047C706.66 31.7578 706.66 29.0625 706.895 26.7188C707.285 22.3437 708.223 18.7891 709.707 16.0547C710.41 14.8828 711.426 13.7109 712.754 12.5391C714.16 11.3672 715.527 10.2344 716.855 9.14062ZM724.238 42.6562C724.473 43.75 724.863 44.6484 725.41 45.3516C726.035 45.9766 726.465 46.9922 726.699 48.3984C727.012 49.8047 727.129 51.3672 727.051 53.0859C726.973 54.7266 726.934 56.3281 726.934 57.8906C726.934 59.375 727.012 60.7422 727.168 61.9922C727.324 63.1641 727.559 64.2578 727.871 65.2734C728.73 67.6953 729.941 68.9062 731.504 68.9062C733.926 68.9062 735.605 64.2188 736.543 54.8438C736.855 52.2656 737.012 48.9844 737.012 45C737.012 40.9375 736.387 37.4609 735.137 34.5703C733.887 31.6016 732.363 30.1172 730.566 30.1172C728.848 30.1172 727.285 32.0312 725.879 35.8594C724.629 39.2969 724.082 41.5625 724.238 42.6562ZM773.34 4.45312C777.246 2.89062 779.355 2.73438 779.668 3.98438C781.621 3.51562 783.066 4.10156 784.004 5.74219C784.316 6.28906 784.902 7.42188 785.762 9.14062C786.699 10.8594 787.676 12.6953 788.691 14.6484C789.785 16.6016 790.801 18.4375 791.738 20.1562C792.676 21.875 793.301 23.0469 793.613 23.6719C793.926 24.2187 794.316 24.5313 794.785 24.6094C795.254 24.6875 795.723 24.5703 796.191 24.2578C797.207 23.4766 797.48 22.3047 797.012 20.7422C796.621 19.1797 796.426 17.9688 796.426 17.1094C796.504 16.1719 796.621 15.3125 796.777 14.5312C797.246 12.3438 797.324 10.5859 797.012 9.25781C796.699 7.92969 796.543 6.67969 796.543 5.50781C796.543 3.16406 798.457 1.99219 802.285 1.99219C803.066 1.99219 803.965 2.03125 804.98 2.10938C805.996 2.10938 807.52 2.03125 809.551 1.875C811.582 1.64062 813.34 2.1875 814.824 3.51562C816.387 4.76562 816.895 7.03125 816.348 10.3125C815.645 14.7656 815.332 17.7734 815.41 19.3359C815.488 20.8203 815.527 22.2266 815.527 23.5547C815.527 24.9609 815.293 27.0312 814.824 29.7656C813.965 34.6094 813.73 38.0469 814.121 40.0781C814.434 41.875 814.59 43.2031 814.59 44.0625V45.9375C814.59 46.1719 814.668 46.6797 814.824 47.4609C814.98 48.2422 814.941 49.0625 814.707 49.9219C814.473 50.7031 814.434 51.5625 814.59 52.5C814.746 53.4375 814.551 54.5312 814.004 55.7812C813.457 56.9531 813.184 58.2812 813.184 59.7656C813.262 61.1719 813.184 62.4609 812.949 63.6328C812.715 64.8047 812.832 66.1719 813.301 67.7344C814.004 70.1562 813.418 74.4141 811.543 80.5078C811.23 81.9922 810.723 82.9688 810.02 83.4375C809.395 83.8281 808.926 84.1406 808.613 84.375C808.301 84.6094 808.066 85.1172 807.91 85.8984C807.52 87.4609 806.699 88.1641 805.449 88.0078C803.809 87.7734 802.48 86.1328 801.465 83.0859C800.059 78.8672 798.926 76.4062 798.066 75.7031C797.207 75 796.543 74.0234 796.074 72.7734C795.684 71.5234 795.332 70.2344 795.02 68.9062C794.395 65.625 793.77 63.75 793.145 63.2812C792.52 62.7344 792.012 61.7188 791.621 60.2344C791.23 58.75 790.84 57.6953 790.449 57.0703C790.059 56.4453 789.668 55.7422 789.277 54.9609C788.965 54.1797 788.613 53.3984 788.223 52.6172C787.207 50.6641 786.23 49.8047 785.293 50.0391C784.746 50.1953 784.355 50.8984 784.121 52.1484C783.965 53.3203 783.809 54.7656 783.652 56.4844C783.184 61.4844 782.402 65.0781 781.309 67.2656C782.012 69.2969 782.52 71.1719 782.832 72.8906C783.223 74.5312 783.145 76.5234 782.598 78.8672C782.129 81.1328 781.738 82.9688 781.426 84.375C781.113 85.7812 780.762 87.0312 780.371 88.125C780.059 89.1406 779.668 89.9219 779.199 90.4688C778.73 91.0156 778.145 91.2109 777.441 91.0547C776.738 90.9766 776.27 90.7812 776.035 90.4688C775.801 90.1562 775.566 89.8438 775.332 89.5312C774.785 88.5156 773.848 87.7734 772.52 87.3047C771.191 86.8359 770.254 86.25 769.707 85.5469C769.16 84.8438 768.809 84.0234 768.652 83.0859C768.496 82.1484 768.379 81.1328 768.301 80.0391C768.301 78.9453 768.027 77.7734 767.48 76.5234C767.012 75.1953 766.777 74.1016 766.777 73.2422C766.777 72.3828 766.855 71.6406 767.012 71.0156C767.168 70.3125 767.324 69.6484 767.48 69.0234C767.637 68.3203 767.48 67.2656 767.012 65.8594C766.074 62.9688 766.348 60.5859 767.832 58.7109C768.926 57.1484 769.395 55.8203 769.238 54.7266C768.77 52.4609 767.871 50.9766 766.543 50.2734C765.918 49.8828 765.605 49.4141 765.605 48.8672C765.605 47.6953 765.41 46.8359 765.02 46.2891C764.707 45.6641 764.707 44.8828 765.02 43.9453C765.332 43.0078 765.293 42.2266 764.902 41.6016C764.902 41.5234 764.785 40.7422 764.551 39.2578C764.395 37.6953 764.199 35.7422 763.965 33.3984C763.809 30.9766 763.613 28.3984 763.379 25.6641C763.145 22.8516 762.988 20.1562 762.91 17.5781C762.598 11.6406 762.637 8.16406 763.027 7.14844C763.496 6.13281 764.16 5.39062 765.02 4.92188C765.957 4.45312 766.934 4.14063 767.949 3.98438C770.137 3.75 771.934 3.90625 773.34 4.45312Z" fill="#810BC4"/>
</svg>
